HIERARCHY
ROOT joint_Root
{
	OFFSET 0.0 0.0 0.0
	CHANNELS 6 Xposition Yposition Zposition Zrotation Xrotation Yrotation 
	JOINT Hips
	{
		OFFSET -17.1583 93.1646 452.98
		CHANNELS 6 Xposition Yposition Zposition Zrotation Xrotation Yrotation 
		JOINT Spine
		{
			OFFSET 15.7357 0.0 0.0
			CHANNELS 6 Xposition Yposition Zposition Zrotation Xrotation Yrotation 
			JOINT Chest
			{
				OFFSET 8.98455 -0.406207 0.0
				CHANNELS 6 Xposition Yposition Zposition Zrotation Xrotation Yrotation 
				JOINT Neck
				{
					OFFSET 16.3773 0.0 0.0
					CHANNELS 6 Xposition Yposition Zposition Zrotation Xrotation Yrotation 
					JOINT Head
					{
						OFFSET 6.45672 0.0 0.0
						CHANNELS 6 Xposition Yposition Zposition Zrotation Xrotation Yrotation 
						End Site
						{
							OFFSET 0.0 0.0 0.0
						}
					}
				}
				JOINT Shoulder_L
				{
					OFFSET 12.9942 -0.242716 4.98039
					CHANNELS 6 Xposition Yposition Zposition Zrotation Xrotation Yrotation 
					JOINT UpperArm_L
					{
						OFFSET 5.34809 0.0 0.0
						CHANNELS 6 Xposition Yposition Zposition Zrotation Xrotation Yrotation 
						JOINT LowerArm_L
						{
							OFFSET 24.3286 1.87007e-05 0.0
							CHANNELS 6 Xposition Yposition Zposition Zrotation Xrotation Yrotation 
							JOINT Hand_L
							{
								OFFSET 22.2916 0.0 0.0
								CHANNELS 6 Xposition Yposition Zposition Zrotation Xrotation Yrotation 
								End Site
								{
									OFFSET 0.0 0.0 0.0
								}
							}
						}
					}
				}
				JOINT Shoulder_R
				{
					OFFSET 12.9945 -0.242716 -4.98039
					CHANNELS 6 Xposition Yposition Zposition Zrotation Xrotation Yrotation 
					JOINT UpperArm_R
					{
						OFFSET -5.34813 0.0 0.0
						CHANNELS 6 Xposition Yposition Zposition Zrotation Xrotation Yrotation 
						JOINT LowerArm_R
						{
							OFFSET -24.3289 0.000322201 0.0
							CHANNELS 6 Xposition Yposition Zposition Zrotation Xrotation Yrotation 
							JOINT Hand_R
							{
								OFFSET -22.2915 -0.000108084 0.0
								CHANNELS 6 Xposition Yposition Zposition Zrotation Xrotation Yrotation 
								End Site
								{
									OFFSET 0.0 0.0 0.0
								}
							}
						}
					}
				}
			}
		}
		JOINT UpperLeg_L
		{
			OFFSET -2.19248 -6.46944 0.0
			CHANNELS 6 Xposition Yposition Zposition Zrotation Xrotation Yrotation 
			JOINT LowerLeg_L
			{
				OFFSET 39.0811 0.0 -1.23785e-05
				CHANNELS 6 Xposition Yposition Zposition Zrotation Xrotation Yrotation 
				JOINT Foot_L
				{
					OFFSET 40.9854 0.0 -1.26872e-05
					CHANNELS 6 Xposition Yposition Zposition Zrotation Xrotation Yrotation 
					JOINT Toes_L
					{
						OFFSET 11.7543 0.0 0.0
						CHANNELS 6 Xposition Yposition Zposition Zrotation Xrotation Yrotation 
						End Site
						{
							OFFSET 0.0 0.0 0.0
						}
					}
				}
			}
		}
		JOINT UpperLeg_R
		{
			OFFSET -2.19251 6.46944 0.0
			CHANNELS 6 Xposition Yposition Zposition Zrotation Xrotation Yrotation 
			JOINT LowerLeg_R
			{
				OFFSET -39.0811 -0.00228153 -0.0401928
				CHANNELS 6 Xposition Yposition Zposition Zrotation Xrotation Yrotation 
				JOINT Foot_R
				{
					OFFSET -40.9854 0.0 0.0
					CHANNELS 6 Xposition Yposition Zposition Zrotation Xrotation Yrotation 
					JOINT Toes_R
					{
						OFFSET -11.7543 0.0 0.0
						CHANNELS 6 Xposition Yposition Zposition Zrotation Xrotation Yrotation 
						End Site
						{
							OFFSET 0.0 0.0 0.0
						}
					}
				}
			}
		}
	}
}
MOTION
Frames:	8
Frame Time:	0.0333333
0.000000 0.000000 0.000000 0.000000 0.000000 -0.000000 -252.988000 89.830800 231.033000 -4.331810 84.219000 87.427200 15.735700 0.000005 -0.000001 45.808000 85.337000 -41.250200 8.984550 -0.406207 -0.000000 -0.789665 -6.839320 9.073350 16.377300 -0.000001 -0.000001 -3.588160 4.867440 -0.710550 6.456720 -0.000001 -0.000000 -13.179600 10.539700 -4.019870 12.994200 -0.242716 4.980390 -92.204100 8.088430 -74.701300 5.348090 -0.000007 -0.000001 -69.875100 5.071330 -12.241300 24.328600 0.000019 0.000005 10.783300 22.233700 -26.718500 22.291600 -0.000001 0.000005 1.457330 5.058190 6.056350 12.994500 -0.242716 -4.980390 88.860400 2.799160 -67.836700 -5.348130 -0.000001 -0.000004 -50.135700 -18.034400 9.479470 -24.328900 0.000322 -0.000009 0.589348 5.301100 -6.363580 -22.291500 -0.000108 -0.000004 7.648280 5.213210 2.386850 -2.192480 -6.469440 -0.000000 -167.866000 -7.212890 10.722000 39.081100 -0.000007 -0.000012 0.002151 -0.007731 15.554800 40.985400 -0.000006 -0.000013 -3.969530 24.877500 -60.716700 11.754300 -0.000000 0.000003 -0.059501 -0.330164 -30.210100 -2.192510 6.469440 -0.000001 -174.009000 1.249730 147.250000 -39.081100 -0.002282 -0.040193 0.218917 -0.384045 29.311400 -40.985400 0.000008 0.000006 -0.209218 -7.877100 -67.358800 -11.754300 -0.000006 -0.000006 0.000205 0.164143 -9.915950
0.000000 0.000000 0.000000 0.000000 0.000000 -0.000000 -248.835000 89.106500 232.116000 -10.593000 83.651200 94.262900 15.735700 0.000005 -0.000001 47.063800 85.316600 -42.111100 8.984550 -0.406207 -0.000000 -0.595780 -6.739990 9.875010 16.377300 -0.000001 -0.000001 -3.954340 4.928740 -1.060710 6.456720 -0.000001 -0.000000 -13.562200 10.662000 -5.202650 12.994200 -0.242716 4.980390 -92.440200 8.856500 -74.528300 5.348090 -0.000007 -0.000001 -72.591600 4.920930 -9.583940 24.328600 0.000019 0.000005 9.759060 28.424700 -19.881000 22.291600 -0.000001 0.000005 -5.271710 5.102740 4.985860 12.994500 -0.242716 -4.980390 88.592900 3.500670 -68.085800 -5.348130 -0.000001 -0.000004 -52.554800 -15.676300 7.849210 -24.328900 0.000322 -0.000009 0.483798 5.696080 -4.873050 -22.291500 -0.000108 -0.000004 7.150800 5.206140 2.564860 -2.192480 -6.469440 -0.000000 -166.728000 -5.076240 11.079000 39.081100 -0.000007 -0.000012 0.011382 -0.032235 19.447800 40.985400 -0.000006 -0.000013 -4.466580 23.799200 -57.785600 11.754300 -0.000000 0.000003 -0.113309 -0.476456 -36.532700 -2.192510 6.469440 -0.000001 -173.606000 -0.924427 147.173000 -39.081100 -0.002282 -0.040193 0.256728 -0.360869 35.080600 -40.985400 0.000008 0.000006 -0.896991 -10.441400 -68.144900 -11.754300 -0.000006 -0.000006 0.000023 0.167272 -9.788880
0.000000 0.000000 0.000000 0.000000 0.000000 -0.000000 -244.346000 88.467500 233.181000 -16.319600 83.096300 101.252000 15.735700 0.000005 -0.000001 50.004000 85.166500 -44.782200 8.984550 -0.406207 -0.000000 -0.035119 -6.566650 10.444900 16.377300 -0.000001 -0.000001 -3.802390 4.964720 -1.504090 6.456720 -0.000001 -0.000000 -14.074700 10.562300 -6.243450 12.994200 -0.242716 4.980390 -92.793100 9.860720 -74.099100 5.348090 -0.000007 -0.000001 -74.166700 2.863280 -5.940390 24.328600 0.000019 0.000005 9.500920 36.629700 -15.673100 22.291600 -0.000001 0.000005 -12.441400 5.192370 2.882260 12.994500 -0.242716 -4.980390 88.249000 4.371620 -68.147500 -5.348130 -0.000001 -0.000004 -55.541000 -11.495700 5.622560 -24.328900 0.000322 -0.000009 0.430364 5.959560 -4.147840 -22.291500 -0.000108 -0.000004 6.394750 5.201890 2.672220 -2.192480 -6.469440 -0.000000 -166.000000 -2.611310 10.637900 39.081100 -0.000007 -0.000012 0.031471 -0.066135 25.447900 40.985400 -0.000006 -0.000013 -4.187010 22.752500 -52.881500 11.754300 -0.000000 0.000003 -0.176960 -0.605401 -42.365400 -2.192510 6.469440 -0.000001 -172.490000 -1.070720 149.061000 -39.081100 -0.002282 -0.040193 0.346287 -0.415460 39.543900 -40.985400 0.000008 0.000006 -1.183680 -10.886000 -71.026500 -11.754300 -0.000006 -0.000006 -0.002355 0.200745 -8.428460
0.000000 0.000000 0.000000 0.000000 0.000000 -0.000000 -239.773000 88.059900 234.211000 -25.769400 82.555600 112.907000 15.735700 0.000005 -0.000001 55.003900 84.870700 -49.701200 8.984550 -0.406207 -0.000000 0.954275 -6.195800 10.657400 16.377300 -0.000001 -0.000001 -3.136760 4.532420 -2.031700 6.456720 -0.000001 -0.000000 -14.630400 9.835410 -6.949660 12.994200 -0.242716 4.980390 -93.187500 10.613800 -73.177400 5.348090 -0.000007 -0.000001 -74.263600 1.544700 -2.469420 24.328600 0.000019 0.000005 6.963720 39.179700 -10.941000 22.291600 -0.000001 0.000005 -16.854900 5.236350 1.795830 12.994500 -0.242716 -4.980390 87.920900 5.071760 -67.674500 -5.348130 -0.000001 -0.000004 -58.880800 -5.614940 3.164520 -24.328900 0.000322 -0.000009 0.542300 6.899260 -4.511360 -22.291500 -0.000108 -0.000004 4.556530 5.192880 2.896480 -2.192480 -6.469440 -0.000000 -165.666000 0.652512 9.008100 39.081100 -0.000007 -0.000012 0.054440 -0.081396 33.775100 40.985400 -0.000006 -0.000013 -4.309090 22.421600 -45.663000 11.754300 -0.000000 0.000003 -0.138719 -0.531973 -39.008300 -2.192510 6.469440 -0.000001 -171.345000 2.064780 153.212000 -39.081100 -0.002282 -0.040193 0.438416 -0.479490 42.225100 -40.985400 0.000008 0.000006 -0.788105 -9.479820 -75.097400 -11.754300 -0.000006 -0.000006 -0.004156 0.220725 -7.615190
0.000000 0.000000 0.000000 0.000000 0.000000 -0.000000 -235.650000 87.891400 235.113000 -32.455400 81.924900 121.931000 15.735700 0.000005 -0.000001 62.689900 84.708500 -57.412700 8.984550 -0.406207 -0.000000 1.902900 -5.121880 10.635700 16.377300 -0.000001 -0.000001 -2.307170 3.844710 -2.265430 6.456720 -0.000001 -0.000000 -14.624800 8.253100 -7.237920 12.994200 -0.242716 4.980390 -93.388800 10.656600 -72.244300 5.348090 -0.000007 -0.000001 -73.465800 -3.143300 0.292557 24.328600 0.000019 0.000005 4.395050 41.136400 -6.664930 22.291600 -0.000001 0.000005 -18.118200 5.207720 2.522470 12.994500 -0.242716 -4.980390 87.741400 5.444760 -67.428800 -5.348130 -0.000001 -0.000004 -62.248200 2.240470 1.091470 -24.328900 0.000322 -0.000009 0.952074 8.161830 -6.680270 -22.291500 -0.000108 -0.000004 2.173840 5.193860 2.870470 -2.192480 -6.469440 -0.000000 -165.514000 4.433530 4.829430 39.081100 -0.000007 -0.000012 0.090233 -0.093046 44.119900 40.985400 -0.000006 -0.000013 -9.669660 21.248200 -34.926300 11.754300 -0.000000 0.000003 -0.015593 -0.141529 -22.352100 -2.192510 6.469440 -0.000001 -170.639000 5.456510 158.335000 -39.081100 -0.002282 -0.040193 0.522387 -0.560807 42.790400 -40.985400 0.000008 0.000006 -0.059446 -7.688070 -78.275800 -11.754300 -0.000006 -0.000006 -0.004444 0.223651 -7.496020
0.000000 0.000000 0.000000 0.000000 0.000000 -0.000000 -232.067000 88.224600 235.723000 -37.842600 81.815000 129.039000 15.735700 0.000005 -0.000001 71.034400 84.682100 -66.059100 8.984550 -0.406207 -0.000000 2.476540 -3.682870 10.023300 16.377300 -0.000001 -0.000001 -1.575450 3.180190 -1.968730 6.456720 -0.000001 -0.000000 -14.142500 6.348830 -6.996460 12.994200 -0.242716 4.980390 -93.522400 10.520700 -71.370000 5.348090 -0.000007 -0.000001 -70.951700 -6.790240 2.877210 24.328600 0.000019 0.000005 3.490100 40.675700 -5.345850 22.291600 -0.000001 0.000005 -17.257200 5.154950 3.823420 12.994500 -0.242716 -4.980390 87.698100 5.612660 -67.657100 -5.348130 -0.000001 -0.000004 -64.866500 11.901000 -1.612040 -24.328900 0.000322 -0.000009 1.394310 8.453930 -9.409600 -22.291500 -0.000108 -0.000004 1.116680 5.229590 1.966220 -2.192480 -6.469440 -0.000000 -165.995000 7.096920 -0.841264 39.081100 -0.000007 -0.000012 0.158524 -0.120203 52.827400 40.985400 -0.000006 -0.000013 -15.284400 16.331500 -24.959500 11.754300 -0.000000 0.000003 0.002079 0.049848 -14.554800 -2.192510 6.469440 -0.000001 -171.121000 7.426960 163.673000 -39.081100 -0.002282 -0.040193 0.417184 -0.475177 41.058700 -40.985400 0.000008 0.000006 -1.084870 -6.194050 -79.872000 -11.754300 -0.000006 -0.000006 -0.004363 0.222827 -7.529600
0.000000 0.000000 0.000000 0.000000 0.000000 -0.000000 -228.717000 89.229600 236.054000 -43.262200 82.593700 135.055000 15.735700 0.000005 -0.000001 79.915000 84.941100 -75.591200 8.984550 -0.406207 -0.000000 2.286040 -1.976690 8.679260 16.377300 -0.000001 -0.000001 -0.798717 2.609270 -1.508600 6.456720 -0.000001 -0.000000 -13.270400 4.372280 -6.272050 12.994200 -0.242716 4.980390 -93.495500 9.996310 -70.612900 5.348090 -0.000007 -0.000001 -67.655400 -9.012590 5.006630 24.328600 0.000019 0.000005 4.044340 40.477700 -6.216400 22.291600 -0.000001 0.000005 -14.961900 5.148210 3.986210 12.994500 -0.242716 -4.980390 87.880000 5.299530 -68.160000 -5.348130 -0.000001 -0.000004 -66.353500 21.370400 -5.011770 -24.328900 0.000322 -0.000009 1.836920 7.975170 -13.023200 -22.291500 -0.000108 -0.000004 1.392060 5.262020 1.112780 -2.192480 -6.469440 -0.000000 -167.149000 7.862160 -6.169650 39.081100 -0.000007 -0.000012 0.180975 -0.109008 58.937000 40.985400 -0.000006 -0.000013 -14.907800 15.960300 -30.636400 11.754300 -0.000000 0.000003 0.001970 0.045560 -14.728700 -2.192510 6.469440 -0.000001 -172.888000 8.823760 169.215000 -39.081100 -0.002282 -0.040193 0.132515 -0.175820 36.316000 -40.985400 0.000008 0.000006 -3.824690 -3.697830 -79.022900 -11.754300 -0.000006 -0.000006 -0.003886 0.217912 -7.729760
0.000000 0.000000 0.000000 0.000000 0.000000 -0.000000 -225.717000 90.570300 236.022000 -53.108200 84.481500 144.500000 15.735700 0.000005 -0.000001 90.494000 85.344300 -87.217100 8.984550 -0.406207 -0.000000 1.556180 -0.097098 6.549360 16.377300 -0.000001 -0.000001 -0.187114 2.126980 -1.145380 6.456720 -0.000001 -0.000000 -12.140900 2.776750 -5.471120 12.994200 -0.242716 4.980390 -93.361900 9.171140 -69.767200 5.348090 -0.000007 -0.000001 -64.227900 -9.559920 6.615190 24.328600 0.000019 0.000005 5.321680 38.479300 -8.514910 22.291600 -0.000001 0.000005 -12.256500 5.147350 4.005750 12.994500 -0.242716 -4.980390 88.270600 4.443230 -68.708600 -5.348130 -0.000001 -0.000004 -67.054900 26.837000 -8.603710 -24.328900 0.000322 -0.000009 2.385200 7.236640 -18.311800 -22.291500 -0.000108 -0.000004 1.439500 5.280720 0.606933 -2.192480 -6.469440 -0.000000 -169.481000 7.271270 -11.449200 39.081100 -0.000007 -0.000012 0.181984 -0.101869 60.760100 40.985400 -0.000006 -0.000013 -14.207100 16.059500 -36.172500 11.754300 -0.000000 0.000003 0.002037 0.048155 -14.623400 -2.192510 6.469440 -0.000001 -175.930000 9.293600 174.001000 -39.081100 -0.002282 -0.040193 -0.037252 0.069236 30.358800 -40.985400 0.000008 0.000006 -6.657860 -1.007760 -76.207600 -11.754300 -0.000006 -0.000006 -0.003091 0.209300 -8.080380
